<svg xmlns="http://www.w3.org/2000/svg" xmlns:xlink="http://www.w3.org/1999/xlink" width="1440" height="1440" viewBox="0 0 1440 1440"><defs><style>.a{fill:url(#a);}.b{fill:url(#b);}</style><linearGradient id="a" x1="720" y1="275" x2="720" y2="1165" gradientUnits="userSpaceOnUse"><stop offset="0" stop-color="#3299ff"/><stop offset="1" stop-color="#007fff"/></linearGradient><linearGradient id="b" x1="720" y1="0" x2="720" y2="1440" xlink:href="#a"/></defs><title>square</title><path class="a" d="M1080,360a84.9764,84.9764,0,0,0-143.9648-61.19l-.0157-.0163L530,690.0479V360a85,85,0,0,0-170,0v720a85,85,0,0,0,170,0V926.1341L668.5285,792.6428l258.3576,338.2135.0014.0019.5656.74.01-.0078a84.9871,84.9871,0,1,0,135.0733-103.1816l.01-.0078L791.7492,673.9026l262.2313-252.6961-.0157-.0163A84.7272,84.7272,0,0,0,1080,360Z"/><path class="b" d="M1411.708,219.8154A359.6341,359.6341,0,0,0,1080,0H360A359.6341,359.6341,0,0,0,0,360v720a359.6341,359.6341,0,0,0,360,360h720a359.6341,359.6341,0,0,0,360-360V360A358.1613,358.1613,0,0,0,1411.708,219.8154ZM1302.5,1080c0,122.6865-99.8135,222.5-222.5,222.5H360c-122.687,0-222.5-99.8135-222.5-222.5V360c0-122.687,99.813-222.5,222.5-222.5h720c122.6865,0,222.5,99.813,222.5,222.5Z"/></svg>